# xmcd CD database file
#
# Track frame offsets:
#	150
#	15740
#	34860
#	56360
#	81560
#	97760
#	120465
#	144075
#	167925
#	185710
#	203547
#	224865
#	263012
#
# Disc length: 3797 seconds
#
# Revision: 0
# Processed by: cddbd v1.5.1PL0 Copyright (c) Steve Scherf et al.
# Submitted via: CDex 1.51
#
DISCID=b30ed30d
DTITLE=Till Bronner - That Summer
DYEAR=2004
DGENRE=Jazz
TTITLE0=Your Way To Say Goodbye
TTITLE1=Bein' Green
TTITLE2=High Falls
TTITLE3=When Your Lover Has Gone
TTITLE4=Estrada Branca
TTITLE5=Antonio's Song
TTITLE6=Ready Or Not
TTITLE7=After Hours
TTITLE8=So Right, So Wrong
TTITLE9=Wishing Well
TTITLE10=Rising Star
TTITLE11=Eleanor Rigby
TTITLE12=DR.Bill
EXTD=YEAR: 2004
EXTT0=
EXTT1=
EXTT2=
EXTT3=
EXTT4=
EXTT5=
EXTT6=
EXTT7=
EXTT8=
EXTT9=
EXTT10=
EXTT11=
EXTT12=
PLAYORDER=
